<svg width="12" height="12" viewBox="0 0 12 12" fill="#cbd5e1" xmlns="http://www.w3.org/2000/svg"><path d="M12 10.6425L8.80427 7.44706C9.30727 6.68769 9.5998 5.77883 9.5998 4.79999C9.5998 2.14872 7.45091 0 4.7999 0C2.14889 0 0 2.1492 0 4.80047C0 7.45079 2.14889 9.60046 4.7999 9.60046C5.77825 9.60046 6.68813 9.30702 7.44719 8.80453L10.6424 12L12 10.6425ZM1.35996 4.80095C1.35996 2.90111 2.9004 1.36176 4.79991 1.36176C6.6999 1.36176 8.24034 2.90111 8.24034 4.80095C8.24034 6.70079 6.6999 8.2411 4.79991 8.2411C2.9004 8.2411 1.35996 6.70079 1.35996 4.80095Z" fill="white"></path></svg>