<svg version="1.1" xmlns="http://www.w3.org/2000/svg" xmlns:xlink="http://www.w3.org/1999/xlink" x="0px" y="0px" width="16px" height="16px" viewBox="0 0 16 16" style="enable-background:new 0 0 16 16;" xml:space="preserve" fill="#cbd5e1"><g><g><path d="M8,0C3.5,0-0.1,3.7,0,8.2C0.1,12.5,3.6,16,8,16c4.4,0,8-3.6,8-8C16,3.5,12.4,0,8,0z M8,15.2 C4,15.2,0.8,12,0.8,8C0.8,4,4,0.8,8,0.8c3.9,0,7.2,3.2,7.2,7.1C15.2,11.9,12,15.2,8,15.2z"></path><path d="M5.6,12c0.8-0.8,1.6-1.6,2.4-2.4c0.8,0.8,1.6,1.6,2.4,2.4c0-2.7,0-5.3,0-8C8.8,4,7.2,4,5.6,4 C5.6,6.7,5.6,9.3,5.6,12z"></path></g></g></svg>